<svg width="361" height="361" xmlns="http://www.w3.org/2000/svg" preserveAspectRatio="xMidYMid" version="1.1">

 <g>
  <title>Layer 1</title>
  <g stroke="null" id="svg_1">
   <path stroke="null" id="svg_2" fill="#264DE4" d="m182.82919,332.08789l-113.98333,-31.00994l-25.40067,-279.20262l279.10963,0l-25.4276,279.15888l-114.29803,31.05368l0,0z"/>
   <path stroke="null" id="svg_3" fill="#2965F1" d="m275.3584,283.25834l21.72958,-238.55405l-114.08797,0l0,263.64749l92.35839,-25.09344l0,0z"/>
   <path stroke="null" id="svg_4" fill="#EBEBEB" d="m101.67568,148.25652l3.13171,34.24267l78.19262,0l0,-34.24267l-81.32433,0l0,0z"/>
   <path stroke="null" id="svg_5" fill="#EBEBEB" d="m95.38303,78.94772l3.17634,34.24342l84.44064,0l0,-34.24342l-87.61698,0l0,0z"/>
   <path stroke="null" id="svg_6" fill="#EBEBEB" d="m183.00001,237.18945l-0.15313,0.03997l-38.91471,-10.29769l-2.48767,-27.31044l-35.07588,0l4.89531,53.76651l71.57526,19.47255l0.16082,-0.04374l0,-35.62717l0,0z"/>
   <path stroke="null" id="svg_7" fill="#000000" d="m109.13176,-53.99998l42.32035,0l0,17.34379l-24.62276,0l0,17.3438l24.62276,0l0,17.34379l-42.32035,0l0,-52.03137l0,0z"/>
   <path stroke="null" id="svg_8" fill="#000000" d="m159.91618,-53.99998l42.32035,0l0,15.08155l-24.62276,0l0,3.01631l24.62276,0l0,34.68758l-42.32035,0l0,-15.83563l24.62274,0l0,-3.01631l-24.62274,0l0,-33.9335l0,0z"/>
   <path stroke="null" id="svg_9" fill="#000000" d="m210.7006,-53.99998l42.32035,0l0,15.08155l-24.62274,0l0,3.01631l24.62274,0l0,34.68758l-42.32035,0l0,-15.83563l24.62276,0l0,-3.01631l-24.62276,0l0,-33.9335l0,0z"/>
   <path stroke="null" id="svg_10" fill="#FFFFFF" d="m264.10042,148.25652l6.30804,-69.3088l-87.52927,0l0,34.24342l49.23627,0l-3.17941,35.06538l-46.05686,0l0,34.24267l43.02672,0l-4.05583,44.41067l-38.97089,10.30825l0,35.62566l71.6322,-19.45597l0.52554,-5.78528l8.21092,-90.15077l0.85256,-9.19523l0,0z"/>
  </g>
 </g>
</svg>