<svg width="361" height="290" xmlns="http://www.w3.org/2000/svg" version="1.1" preserveAspectRatio="xMidYMid">
 <g>
  <title>Layer 1</title>
  <g stroke="null" id="svg_1">
   <path stroke="null" d="m306.55481,15.28044l-23.24114,236.49925l-104.4698,26.30822l-104.18216,-26.27116l-23.21652,-236.53631l255.10962,0l0,0z" fill="#E44D26" id="svg_2"/>
   <path stroke="null" d="m179,257.97903l84.4167,-21.25879l19.8611,-202.09944l-104.2778,0l0,223.35824l0,0z" fill="#F16529" id="svg_3"/>
   <path stroke="null" d="m133.82022,92.64184l45.17978,0l0,-29.01052l-80.08299,0l0.76448,7.78303l7.8495,79.94424l71.46901,0l0,-29.00988l-42.2611,0l-2.91868,-29.70686l0,0z" fill="#EBEBEB" id="svg_4"/>
   <path stroke="null" d="m141.01776,165.86418l-32.05978,0l4.47437,45.55019l65.42066,16.49686l0.14699,-0.03705l0,-30.18281l-0.13996,0.03386l-35.56852,-8.72405l-2.27376,-23.137l0,0z" fill="#EBEBEB" id="svg_5"/>
   <path stroke="null" d="m75.18075,-49l16.22998,0l0,14.56563l14.84659,0l0,-14.56563l16.23068,0l0,44.10832l-16.22998,0l0,-14.77006l-14.84659,0l0,14.77006l-16.22998,0l0,-44.10832l-0.0007,0l0,0z" fill="#000000" id="svg_6"/>
   <path stroke="null" d="m143.83095,-34.37304l-14.28818,0l0,-14.62696l44.81407,0l0,14.62696l-14.29451,0l0,29.48136l-16.23068,0l0,-29.48136l-0.0007,0l0,0z" fill="#000000" id="svg_7"/>
   <path stroke="null" d="m181.46928,-49l16.92342,0l10.4102,15.49835l10.39965,-15.49835l16.92976,0l0,44.10832l-16.16317,0l0,-21.8625l-11.16624,15.68297l-0.27921,0l-11.17398,-15.68297l0,21.8625l-15.88043,0l0,-44.10832l0,0z" fill="#000000" id="svg_8"/>
   <path stroke="null" d="m244.20967,-49l16.2349,0l0,29.52863l22.82409,0l0,14.57969l-39.05899,0l0,-44.10832l0,0z" fill="#000000" id="svg_9"/>
   <path stroke="null" d="m178.88958,151.35859l39.32695,0l-3.70708,37.62406l-35.61987,8.733l0,30.18153l65.47271,-16.4828l0.48035,-4.90121l7.50488,-76.37439l0.77925,-7.79006l-74.23719,0l0,29.00988l0,0z" fill="#FFFFFF" id="svg_10"/>
   <path stroke="null" d="m178.88958,92.57093l0,0.07091l77.14321,0l0.64071,-6.52068l1.45511,-14.70681l0.76379,-7.78303l-80.00282,0l0,28.93961l0,0z" fill="#FFFFFF" id="svg_11"/>
  </g>
  <path d="m195.5,18c8,-3 8.98827,-4.09882 17,-5c9.98689,-1.12335 20,-3 30,-3c5,0 5.97003,-0.48873 2,0c-8.18443,1.00755 -18.97325,4.49968 -33,5c-13.9911,0.49905 -27,0 -34,0c-1,0 -0.0742,-1.49755 5,-2c8.95621,-0.88684 23.00735,-0.06158 40,2c16.00714,1.94202 24,4 23,4c-4,0 -17.0112,1.13534 -42,-1c-22.01051,-1.88084 -37,-3 -44,-3l-1,0l2,-2l2,0" id="svg_14" fill="none"/>
  <path stroke="null" d="m186.4505,9c2.66367,0 4.93725,-0.70711 3.9955,0c-0.94175,0.70711 -3.9955,1 -7.991,1c-6.65917,0 -14.65017,0 -23.973,0c-6.65917,0 -11.9865,0 -14.65017,-1l-1.33183,0" id="svg_15" fill="none"/>
  <path d="m135.5,6c1,0 4.00514,-0.22657 9,0c11.03401,0.50051 27.02496,2.79886 52,6c22.02344,2.82282 41,8 41,5c0,-5 -16.9987,-0.02493 -36,-1c-19.99867,-1.02625 -40.0242,-2.83738 -54,-5c-6.01122,-0.93018 -5.99693,-1.8894 -4,-2c9.04153,-0.50077 23.00847,-1.14225 41,0c14.00746,0.88931 20,2 19,2l-6,0l-15,-2l-13,-1" id="svg_16" stroke="null" fill="none"/>
  <path d="m144.5,7c13,0 15,0 23,0c14,0 23,0 27,0l0,1l-1,1" id="svg_17" stroke="null" fill="none"/>
  <path d="m285.5,29c0,1 -1.01901,1.05536 -4,0c-8.05417,-2.85141 -19.08804,-5.61508 -33,-9c-11.07854,-2.69552 -20.03308,-6.91324 -28,-10c-5.02144,-1.94554 -8.87856,-3.49346 -12,-4c-0.98709,-0.16018 -4,0 -6,-1c-2,-1 -5.01704,-0.5876 -10,-1c-6.06204,-0.50171 -15,-2 -24,-2c-12,0 -22.99687,0.03822 -35,1c-12.99675,1.0414 -24.93365,2.36646 -35,4c-7.95815,1.29143 -18.50654,-0.12144 -18,3c0.16018,0.98709 2.00822,-0.36252 10,0c11.03401,0.50051 25.88902,2.71654 43,5c10.9483,1.46105 14,2 14,3l-5,0l-3,0" id="svg_25" fill="none"/>
  <path stroke="null" d="m155.5,14c-0.094,0 -0.282,-1 -0.75199,-1c-0.75199,0 -1.59799,0 -2.25598,0c-0.188,0 -0.09234,0.50378 0.564,1c0.663,0.50126 1.31599,1 1.78599,1l0.094,0" id="svg_26" fill="none"/>
 </g>

</svg>